<svg width="297" height="100" viewBox="0 0 297 100" fill="none" xmlns="http://www.w3.org/2000/svg">
<path d="M152.803 28.263C158.219 28.263 161.973 30.2875 164.067 34.3364L165.469 40.4098C165.469 42.918 158.669 47.6925 145.069 54.7333C138.009 57.8686 134.332 59.8124 134.038 60.5649C132.948 62.661 132.247 63.709 131.936 63.709C131.157 64.354 130.456 65.3214 129.834 66.6114H129.366V66.8532L129.133 66.6114H128.899C128.57 66.6114 128.103 67.6684 127.498 69.7824H127.03L127.264 70.0243V70.2662C126.78 70.2662 125.603 72.21 123.734 76.0977C123.267 78.0326 122.333 79 120.931 79V78.5163H120.698L119.763 78.7581L119.504 78.5163H119.27L118.569 78.7581L118.102 78.2744L117.635 78.7581L116 76.8233V76.3395C116 74.7271 117.955 69.7108 121.866 61.2904L121.165 61.0486L121.398 60.8067V60.5649L120.231 59.5705L119.27 59.8124L118.803 59.0868L119.037 58.845V58.6031C118.102 58.6031 117.635 58.3612 117.635 57.8775C119.556 56.3009 122.601 54.4377 126.771 52.2879L131.469 42.3447H131.235C129.366 42.3447 127.567 40.4815 125.837 36.755V34.5783C127.117 32.8942 130.405 31.5237 135.699 30.4667C138.727 29.8038 144.428 29.0693 152.803 28.263ZM139.904 46.2413H140.137C145.224 43.7869 149.913 40.786 154.204 37.2388V36.9969H153.971C147.569 37.2477 144.368 37.7404 144.368 38.4749L139.904 46.2413Z" fill="white"/>
<path d="M179.498 30.2248C183.667 30.2248 186.22 31.5058 187.154 34.0677C187.69 36.343 188.339 40.8577 189.101 47.6119L189.334 47.8537C189.421 48.9108 189.637 49.4393 189.983 49.4393L196.965 48.5256V48.9824H197.198L200.676 48.7674V49.1974L199.145 49.6543V49.8961H200.676L202.207 49.6543V50.1111C200.719 50.7202 199.56 51.0248 198.73 51.0248V51.4817L199.82 51.2398C200.823 51.5444 201.325 51.8489 201.325 52.1535L202.441 51.9116C205.348 52.0012 206.801 52.3058 206.801 52.8253L206.568 53.0403L208.099 53.4972V53.954C206.126 55.011 202.052 55.9158 195.875 56.6682L191.956 57.3401C193.842 65.0079 194.785 70.2124 194.785 72.9535V73.8403L194.136 74.539H193.902C193.418 74.539 192.916 74.3061 192.397 73.8403V74.539H191.956V74.0822L191.281 74.539L190.424 73.8403L188.244 74.754L186.479 72.9535C185.752 71.7352 184.662 67.2832 183.209 59.5974H183.001C173.831 62.2131 169.246 64.2555 169.246 65.7245C168.657 66.1008 166.91 68.4298 164.003 72.7116C162.999 73.9299 162.195 74.539 161.589 74.539L161.148 73.4103L160.94 73.6253H160.733C159.85 73.0879 159.409 72.4877 159.409 71.8248L159.201 72.0398H158.76V71.5829C158.155 71.5829 157.575 71.1351 157.021 70.2393C156.433 70.2393 156.139 70.087 156.139 69.7824V68.1969C156.139 66.5128 157.886 63.727 161.382 59.8393C162.87 57.2773 165.275 53.7301 168.597 49.1974L176.02 35.6532L177.525 31.1116C178.304 30.5204 178.961 30.2248 179.498 30.2248ZM177.759 52.1535V52.3685C180.233 51.7056 181.47 51.2577 181.47 51.0248L180.821 47.3969C180.423 47.5761 179.402 49.1616 177.759 52.1535ZM198.055 48.3106H198.496V48.7674H198.055V48.3106ZM198.288 49.8961V50.1111H198.73V49.8961H198.288Z" fill="white"/>
<path d="M225.565 27H226.941C230.955 28.5228 232.962 30.5204 232.962 32.9928C231.924 34.7485 227.762 43.7511 220.478 60.0005L218.635 63.3597L232.962 62.3922L234.805 62.6341H236.18V63.1178H235.505V63.8434H236.881V64.3271L234.571 65.5096L235.038 66.9339H236.414L238.49 69.1106C238.49 69.5406 233.948 70.4095 224.864 71.7173C221.023 72.5235 215.789 73.8851 209.162 75.8021H208.928C208.081 75.8021 206.618 74.5211 204.542 71.9592V71.7173L204.776 71.5023L204.542 71.2605V68.8687C204.542 68.0625 205.234 67.104 206.618 65.9933C213.886 52.0729 219.12 40.2755 222.321 30.601L222.087 29.8755C223.056 27.9585 224.215 27 225.565 27Z" fill="white"/>
<path d="M263.545 28.8005H264.713C266.495 28.8005 268.053 30.0098 269.385 32.4284L268.918 42.1028C268.918 44.826 269.307 47.0117 270.086 48.6599C270.414 48.642 271.98 47.0207 274.783 43.7959C275.302 43.6346 278.417 40.4904 284.127 34.3633C286.272 31.2997 288.461 29.768 290.693 29.768L292.328 29.5261C293.851 29.8844 294.707 30.3681 294.898 30.9773C295.244 30.9773 295.945 31.6222 297 32.9121V33.3959C297 35.0262 294.733 41.001 290.2 51.3204C288.66 55.1902 287.648 57.1251 287.163 57.1251L287.397 57.3669V57.6088L284.36 63.8972C284.084 63.9151 282.838 66.5845 280.623 71.9054L278.988 74.0822H277.353V73.5985L276.418 74.0822C276.418 73.7239 275.873 73.4014 274.783 73.1147L274.316 73.5985C273.884 73.5447 273.572 73.1416 273.382 72.3891C272.759 72.3891 272.447 72.2279 272.447 71.9054V70.2124C272.447 67.0772 274.783 61.0217 279.455 52.046C277.015 54.375 274.679 57.2773 272.447 60.753C271.928 60.753 271.219 61.2367 270.319 62.2041H270.086C268.425 61.0038 266.867 60.2782 265.414 60.0274C263.839 58.9166 262.438 55.6112 261.209 50.1111H260.976C254.176 66.271 250.43 74.6644 249.738 75.2915H249.27L248.102 74.5659L247.402 74.8078L247.168 74.5659L246.935 74.8078L246.467 73.8403L246 74.324L245.767 74.0822L243.664 74.5659C243.318 73.688 242.851 73.2043 242.263 73.1147V72.1473C242.263 68.2775 246.71 57.2953 255.603 39.2005C257.697 32.5897 259.41 29.2842 260.742 29.2842L263.545 28.8005Z" fill="white"/>
<circle cx="50" cy="50" r="50" fill="url(#paint0_linear_12_92)"/>
<mask id="mask0_12_92" style="mask-type:alpha" maskUnits="userSpaceOnUse" x="0" y="0" width="100" height="100">
<circle cx="50" cy="50" r="50" fill="white"/>
</mask>
<g mask="url(#mask0_12_92)">
<rect x="-7.32129" y="67.7378" width="114.967" height="1.89805" fill="#212121"/>
<rect x="-7.32129" y="77.5776" width="114.967" height="3.79609" fill="#212121"/>
<rect x="-7.32129" y="87.5747" width="114.932" height="6.44624" fill="#212121"/>
<path d="M56.7781 29.9339C57.2047 28.6209 58.2287 27.5881 59.5379 27.1501L78.8045 20.7053C79.2407 20.5594 79.5757 21.1015 79.2502 21.4264L50.0812 50.5432L56.7781 29.9339Z" fill="#212121"/>
<path d="M40.2632 26.7572C41.5761 27.1839 42.609 28.2079 43.047 29.5171L50.0795 50.5406L20.9327 21.3416C20.6095 21.0178 20.9403 20.4784 21.3754 20.6198L40.2632 26.7572Z" fill="#212121"/>
<path d="M69.3994 40.7275C70.6302 40.1022 72.0846 40.0976 73.3193 40.7151L91.4895 49.8026C91.9008 50.0083 91.7537 50.6284 91.2938 50.6275L50.0796 50.5427L69.3994 40.7275Z" fill="#212121"/>
<path d="M26.3462 40.6459C27.577 40.0206 29.0314 40.016 30.2661 40.6335L50.0932 50.5496L8.83656 50.4648C8.37907 50.4639 8.23236 49.8484 8.64023 49.6412L26.3462 40.6459Z" fill="#212121"/>
<path d="M26.3592 60.5307C26.7767 59.2148 27.7936 58.1749 29.0998 57.7279L50.0742 50.5505L21.0771 79.8981C20.7555 80.2235 20.2139 79.8964 20.3523 79.4604L26.3592 60.5307Z" fill="#212121"/>
<path d="M70.6417 57.3792C71.9516 57.815 72.9773 58.8462 73.4061 60.1584L79.7163 79.4695C79.8591 79.9067 79.3147 80.238 78.992 79.9103L50.0796 50.5387L70.6417 57.3792Z" fill="#212121"/>
<path d="M50.0917 50.4697L54.5266 62.1224C54.7259 62.646 54.3392 63.207 53.7789 63.207H46.3563C45.7949 63.207 45.4081 62.6438 45.6097 62.1197L50.0917 50.4697Z" fill="#212121"/>
<path d="M49.3286 60.4739C49.5721 59.7431 50.6064 59.7448 50.8474 60.4764L54.5932 71.8434C54.7638 72.3609 54.3783 72.8938 53.8334 72.8938H46.3011C45.7551 72.8938 45.3696 72.3589 45.5421 71.8409L49.3286 60.4739Z" fill="#212121"/>
<path d="M49.3286 71.4178C49.5721 70.687 50.6064 70.6886 50.8474 71.4202L54.5932 82.7872C54.7638 83.3047 54.3783 83.8376 53.8334 83.8376H46.3011C45.7551 83.8376 45.3696 83.3028 45.5421 82.7848L49.3286 71.4178Z" fill="#212121"/>
<path d="M49.3286 81.2845C49.5721 80.5537 50.6064 80.5553 50.8474 81.2869L54.5932 92.6539C54.7638 93.1714 54.3783 93.7043 53.8334 93.7043H46.3011C45.7551 93.7043 45.3696 93.1695 45.5421 92.6515L49.3286 81.2845Z" fill="#212121"/>
<path d="M49.3286 88.6404C49.5721 87.9096 50.6064 87.9113 50.8474 88.6429L54.5932 100.01C54.7638 100.527 54.3783 101.06 53.8334 101.06H46.3011C45.7551 101.06 45.3696 100.525 45.5421 100.007L49.3286 88.6404Z" fill="#212121"/>
<path d="M49.3286 98.1482C49.5721 97.4174 50.6064 97.4191 50.8474 98.1507L54.5932 109.518C54.7638 110.035 54.3783 110.568 53.8334 110.568H46.3011C45.7551 110.568 45.3696 110.033 45.5421 109.515L49.3286 98.1482Z" fill="#212121"/>
</g>
<defs>
<linearGradient id="paint0_linear_12_92" x1="50" y1="0" x2="50" y2="100" gradientUnits="userSpaceOnUse">
<stop stop-color="#A81AE0"/>
<stop offset="0.36801" stop-color="#F1328C"/>
<stop offset="0.74623" stop-color="#F7883F"/>
<stop offset="1" stop-color="#ECA441"/>
</linearGradient>
</defs>
</svg>
