<svg width="294" height="100" viewBox="0 0 294 100" fill="none" xmlns="http://www.w3.org/2000/svg">
<path d="M150.994 14.2088C156.365 14.2088 160.088 16.1464 162.165 20.0216L163.555 25.8343C163.555 28.2348 156.811 32.8044 143.323 39.543C136.322 42.5437 132.676 44.4041 132.384 45.1243C131.303 47.1304 130.608 48.1335 130.299 48.1335C129.527 48.7508 128.832 49.6767 128.214 50.9113H127.751V51.1427L127.519 50.9113H127.287C126.961 50.9113 126.498 51.9229 125.897 53.9462H125.434L125.666 54.1777V54.4092C125.185 54.4092 124.018 56.2696 122.165 59.9904C121.702 61.8423 120.775 62.7682 119.385 62.7682V62.3052H119.154L118.227 62.5367L117.97 62.3052H117.738L117.043 62.5367L116.58 62.0737L116.116 62.5367L114.495 60.6849V60.2219C114.495 58.6787 116.434 53.8776 120.312 45.8187L119.617 45.5872L119.849 45.3557V45.1243L118.69 44.1726L117.738 44.4041L117.275 43.7097L117.506 43.4782V43.2467C116.58 43.2467 116.116 43.0152 116.116 42.5523C118.021 41.0434 121.041 39.2601 125.177 37.2025L129.836 27.6861H129.604C127.751 27.6861 125.966 25.9029 124.25 22.3364V20.253C125.52 18.6413 128.78 17.3295 134.031 16.3179C137.034 15.6835 142.688 14.9804 150.994 14.2088ZM138.201 31.4155H138.433C143.478 29.0664 148.128 26.1944 152.384 22.7993V22.5678H152.152C145.803 22.8079 142.628 23.2794 142.628 23.9824L138.201 31.4155Z" fill="white"/>
<path d="M177.468 16.0864C181.603 16.0864 184.134 17.3124 185.061 19.7644C185.593 21.942 186.237 26.2629 186.992 32.7272L187.223 32.9587C187.309 33.9704 187.524 34.4762 187.867 34.4762L194.791 33.6017V34.039H195.022L198.472 33.8332V34.2447L196.953 34.682V34.9134H198.472L199.99 34.682V35.1192C198.514 35.7022 197.365 35.9937 196.541 35.9937V36.4309L197.622 36.1994C198.617 36.4909 199.115 36.7824 199.115 37.0739L200.222 36.8424C203.105 36.9282 204.546 37.2197 204.546 37.7169L204.314 37.9227L205.833 38.3599V38.7972C203.877 39.8088 199.836 40.6747 193.71 41.3949L189.823 42.0379C191.693 49.3766 192.629 54.3577 192.629 56.9812V57.8299L191.985 58.4987H191.753C191.273 58.4987 190.775 58.2758 190.261 57.8299V58.4987H189.823V58.0614L189.154 58.4987L188.304 57.8299L186.142 58.7044L184.392 56.9812C183.671 55.8152 182.59 51.5543 181.149 44.1983H180.943C171.848 46.7018 167.301 48.6565 167.301 50.0625C166.717 50.4226 164.984 52.6517 162.101 56.7497C161.106 57.9157 160.308 58.4987 159.707 58.4987L159.27 57.4184L159.064 57.6242H158.858C157.983 57.1098 157.545 56.5354 157.545 55.9009L157.339 56.1067H156.902V55.6695C156.301 55.6695 155.726 55.2408 155.177 54.3835C154.594 54.3835 154.302 54.2377 154.302 53.9462V52.4287C154.302 50.817 156.035 48.1507 159.502 44.4298C160.977 41.9779 163.362 38.5828 166.657 34.2447L174.019 21.2818L175.512 16.9352C176.284 16.3693 176.936 16.0864 177.468 16.0864ZM175.743 37.0739V37.2797C178.197 36.6452 179.424 36.2166 179.424 35.9937L178.781 32.5215C178.386 32.6929 177.373 34.2104 175.743 37.0739ZM195.872 33.396H196.309V33.8332H195.872V33.396ZM196.103 34.9134V35.1192H196.541V34.9134H196.103Z" fill="white"/>
<path d="M223.155 13H224.519C228.5 14.4575 230.491 16.3693 230.491 18.7356C229.461 20.4159 225.334 29.0321 218.11 44.5841L216.282 47.7991L230.491 46.8732L232.318 47.1047H233.682V47.5677H233.013V48.2621H234.377V48.7251L232.087 49.8567L232.55 51.2199H233.914L235.973 53.3032C235.973 53.7147 231.469 54.5464 222.46 55.7981C218.65 56.5697 213.46 57.8728 206.887 59.7075H206.656C205.815 59.7075 204.365 58.4815 202.306 56.0295V55.7981L202.537 55.5923L202.306 55.3608V53.0717C202.306 52.3001 202.992 51.3828 204.365 50.3197C211.572 36.9968 216.763 25.7057 219.937 16.4465L219.706 15.752C220.667 13.9173 221.816 13 223.155 13Z" fill="white"/>
<path d="M260.821 14.7232H261.98C263.747 14.7232 265.292 15.8806 266.613 18.1954L266.15 27.4546C266.15 30.0609 266.536 32.1528 267.308 33.7303C267.634 33.7132 269.187 32.1614 271.967 29.075C272.482 28.9207 275.57 25.9114 281.233 20.0473C283.361 17.1152 285.532 15.6492 287.745 15.6492L289.367 15.4177C290.877 15.7606 291.726 16.2236 291.915 16.8066C292.258 16.8066 292.953 17.4238 294 18.6584V19.1214C294 20.6817 291.752 26.4001 287.256 36.2766C285.729 39.9803 284.725 41.8321 284.245 41.8321L284.476 42.0636V42.2951L281.465 48.3135C281.19 48.3307 279.955 50.8855 277.758 55.9781L276.137 58.0614H274.515V57.5985L273.588 58.0614C273.588 57.7185 273.048 57.4099 271.967 57.1355L271.503 57.5985C271.074 57.547 270.766 57.1612 270.577 56.4411C269.959 56.4411 269.65 56.2867 269.65 55.9781V54.3577C269.65 51.3571 271.967 45.5615 276.6 36.971C274.18 39.2001 271.864 41.9779 269.65 45.3043C269.135 45.3043 268.432 45.7673 267.54 46.6932H267.308C265.661 45.5444 264.116 44.8499 262.675 44.6099C261.113 43.5468 259.723 40.3832 258.505 35.1192H258.273C251.529 50.5855 247.814 58.6187 247.128 59.2188H246.665L245.506 58.5244L244.811 58.7559L244.58 58.5244L244.348 58.7559L243.885 57.8299L243.421 58.2929L243.19 58.0614L241.105 58.5244C240.762 57.6842 240.298 57.2212 239.715 57.1355V56.2096C239.715 52.5059 244.125 41.995 252.945 24.6769C255.021 18.3498 256.72 15.1862 258.042 15.1862L260.821 14.7232Z" fill="white"/>
<path d="M120.93 87C119.671 87 118.595 86.7799 117.701 86.3396C116.82 85.8993 116.109 85.327 115.567 84.6226C115.026 83.9181 114.629 83.1571 114.378 82.3395C114.126 81.5093 114 80.7105 114 79.9432V79.5281C114 78.6979 114.126 77.8676 114.378 77.0374C114.642 76.2072 115.045 75.4525 115.586 74.7732C116.127 74.0939 116.832 73.5468 117.701 73.1317C118.57 72.7165 119.608 72.509 120.817 72.509C122.655 72.509 124.102 72.9807 125.16 73.9241C126.23 74.855 126.853 76.1003 127.029 77.6601H125.141C124.977 76.4903 124.493 75.6223 123.687 75.0562C122.894 74.4902 121.937 74.2072 120.817 74.2072C119.734 74.2072 118.821 74.4587 118.079 74.9619C117.349 75.4525 116.801 76.1192 116.436 76.962C116.071 77.7922 115.888 78.723 115.888 79.7545C115.888 80.7357 116.071 81.6476 116.436 82.4904C116.814 83.3332 117.374 84.0125 118.116 84.5282C118.872 85.044 119.81 85.3018 120.93 85.3018C122.113 85.3018 123.108 85.0062 123.914 84.415C124.719 83.8238 125.21 82.9684 125.386 81.8489H127.275C127.149 82.7923 126.828 83.654 126.312 84.4339C125.808 85.2138 125.103 85.8364 124.197 86.3019C123.303 86.7673 122.214 87 120.93 87Z" fill="white"/>
<path d="M131.088 86.6604V72.8864H132.938V84.9999H138.867V86.6604H131.088Z" fill="white"/>
<path d="M142.53 86.6604V72.8864H144.38V86.6604H142.53Z" fill="white"/>
<path d="M154.992 86.6604V78.0563H153.595V76.6978H154.992V76.0751C154.992 74.9556 155.288 74.1317 155.88 73.6034C156.472 73.0751 157.34 72.8109 158.486 72.8109H159.732V74.3204H158.184C157.718 74.3204 157.359 74.4525 157.107 74.7166C156.855 74.9682 156.73 75.3204 156.73 75.7732V76.6978H159.921V78.0563H156.73V86.6604H154.992Z" fill="white"/>
<path d="M162.979 86.6604V76.5846H164.414V79.6035C164.565 78.5218 164.962 77.7293 165.604 77.2261C166.246 76.723 167.121 76.4714 168.228 76.4714H168.568V78.0941H167.926C166.919 78.0941 166.145 78.3645 165.604 78.9054C165.062 79.4337 164.792 80.2011 164.792 81.2074V86.6604H162.979Z" fill="white"/>
<path d="M174.615 86.9245C173.469 86.9245 172.569 86.6415 171.914 86.0754C171.272 85.4968 170.951 84.6855 170.951 83.6414C170.951 82.5722 171.31 81.7671 172.028 81.2262C172.745 80.6728 173.759 80.396 175.068 80.396H177.617V80.1507C177.617 78.7545 176.912 78.0563 175.502 78.0563C174.923 78.0563 174.319 78.0689 173.689 78.0941C173.06 78.1192 172.538 78.1444 172.122 78.1695V76.5846C172.525 76.5469 172.972 76.5217 173.463 76.5091C173.966 76.484 174.445 76.4714 174.898 76.4714C176.446 76.4714 177.573 76.7544 178.278 77.3205C178.996 77.8865 179.354 78.874 179.354 80.2828V86.6604H177.919V84.6603C177.466 86.1698 176.365 86.9245 174.615 86.9245ZM174.992 85.4905C175.42 85.4905 175.83 85.415 176.22 85.2641C176.61 85.1006 176.931 84.8364 177.183 84.4716C177.447 84.0942 177.592 83.5785 177.617 82.9244V81.7546H174.992C174.262 81.7546 173.702 81.9307 173.312 82.2829C172.922 82.6351 172.726 83.0879 172.726 83.6414C172.726 84.1949 172.922 84.6414 173.312 84.9811C173.702 85.3207 174.262 85.4905 174.992 85.4905Z" fill="white"/>
<path d="M183.814 86.6604V76.5846H185.25V78.9054C185.464 78.0626 185.841 77.4148 186.383 76.962C186.936 76.5091 187.654 76.2827 188.535 76.2827H188.611C189.467 76.2827 190.165 76.4965 190.707 76.9242C191.248 77.3519 191.632 77.9683 191.859 78.7733C192.098 77.9683 192.488 77.3519 193.029 76.9242C193.583 76.4965 194.288 76.2827 195.144 76.2827H195.22C196.416 76.2827 197.303 76.6915 197.882 77.5091C198.474 78.3142 198.77 79.4463 198.77 80.9055V86.6604H196.957V80.5092C196.957 79.6916 196.756 79.0627 196.353 78.6224C195.95 78.1695 195.39 77.9431 194.672 77.9431C193.929 77.9431 193.332 78.1821 192.878 78.6601C192.425 79.1255 192.199 79.7797 192.199 80.6224V86.6604H190.386V80.5092C190.386 79.6916 190.184 79.0627 189.781 78.6224C189.379 78.1695 188.818 77.9431 188.101 77.9431C187.358 77.9431 186.76 78.1821 186.307 78.6601C185.854 79.1255 185.627 79.7797 185.627 80.6224V86.6604H183.814Z" fill="white"/>
<path d="M207.508 87C206.627 87 205.866 86.8491 205.224 86.5472C204.581 86.2453 204.059 85.849 203.656 85.3584C203.253 84.8553 202.951 84.2955 202.75 83.6791C202.561 83.0628 202.467 82.4338 202.467 81.7923V81.4527C202.467 80.7986 202.561 80.1633 202.75 79.5469C202.951 78.9306 203.253 78.3771 203.656 77.8865C204.059 77.3834 204.569 76.9871 205.186 76.6978C205.815 76.3959 206.552 76.245 207.395 76.245C208.49 76.245 209.39 76.484 210.095 76.962C210.813 77.4274 211.342 78.0312 211.682 78.7733C212.034 79.5155 212.21 80.308 212.21 81.1508V81.9621H204.204C204.267 82.9559 204.563 83.7798 205.091 84.4339C205.62 85.088 206.426 85.415 207.508 85.415C208.301 85.415 208.943 85.2389 209.434 84.8867C209.938 84.5345 210.24 84.1257 210.341 83.6603H212.04C211.826 84.7043 211.316 85.522 210.511 86.1132C209.705 86.7044 208.704 87 207.508 87ZM207.395 77.8299C206.489 77.8299 205.777 78.0878 205.261 78.6035C204.745 79.1067 204.418 79.7734 204.279 80.6036H210.435C210.322 79.7482 210.014 79.0752 209.51 78.5846C209.006 78.0815 208.301 77.8299 207.395 77.8299Z" fill="white"/>
<path d="M217.448 86.6604L214.597 76.5846H216.334L218.714 85.2264H219.091L220.828 76.9242H223.283L225.304 85.2264H225.681L227.758 76.5846H229.401L226.928 86.6604H224.114L222.056 78.2828L220.281 86.6604H217.448Z" fill="white"/>
<path d="M237.443 87C236.562 87 235.788 86.8491 235.121 86.5472C234.454 86.2453 233.887 85.849 233.421 85.3584C232.968 84.8553 232.622 84.2955 232.383 83.6791C232.156 83.0628 232.043 82.4338 232.043 81.7923V81.4527C232.043 80.8111 232.162 80.1822 232.402 79.5658C232.641 78.9369 232.993 78.3771 233.459 77.8865C233.925 77.3834 234.491 76.9871 235.159 76.6978C235.826 76.3959 236.587 76.245 237.443 76.245C238.299 76.245 239.061 76.3959 239.728 76.6978C240.395 76.9871 240.962 77.3834 241.428 77.8865C241.893 78.3771 242.246 78.9369 242.485 79.5658C242.724 80.1822 242.844 80.8111 242.844 81.4527V81.7923C242.844 82.4338 242.724 83.0628 242.485 83.6791C242.259 84.2955 241.912 84.8553 241.447 85.3584C240.993 85.849 240.433 86.2453 239.766 86.5472C239.099 86.8491 238.325 87 237.443 87ZM237.443 85.3773C238.199 85.3773 238.841 85.2138 239.369 84.8867C239.911 84.5471 240.32 84.0942 240.597 83.5282C240.886 82.9621 241.031 82.3269 241.031 81.6225C241.031 80.9055 240.886 80.2639 240.597 79.6979C240.307 79.1318 239.892 78.6853 239.351 78.3582C238.822 78.0312 238.186 77.8676 237.443 77.8676C236.713 77.8676 236.078 78.0312 235.536 78.3582C234.995 78.6853 234.579 79.1318 234.29 79.6979C234 80.2639 233.856 80.9055 233.856 81.6225C233.856 82.3269 233.994 82.9621 234.271 83.5282C234.561 84.0942 234.97 84.5471 235.498 84.8867C236.04 85.2138 236.688 85.3773 237.443 85.3773Z" fill="white"/>
<path d="M246.692 86.6604V76.5846H248.127V79.6035C248.278 78.5218 248.675 77.7293 249.317 77.2261C249.959 76.723 250.834 76.4714 251.941 76.4714H252.281V78.0941H251.639C250.632 78.0941 249.858 78.3645 249.317 78.9054C248.775 79.4337 248.505 80.2011 248.505 81.2074V86.6604H246.692Z" fill="white"/>
<path d="M255.57 86.6604V72.8864H257.383V81.5847L261.688 76.5846H263.595L259.875 80.8866L264.615 86.6604H262.519L258.723 81.9621H257.383V86.6604H255.57Z" fill="white"/>
<circle cx="50" cy="50" r="50" fill="url(#paint0_linear_12_381)"/>
<mask id="mask0_12_381" style="mask-type:alpha" maskUnits="userSpaceOnUse" x="0" y="0" width="100" height="100">
<circle cx="50" cy="50" r="50" fill="white"/>
</mask>
<g mask="url(#mask0_12_381)">
<rect x="-7.32129" y="67.7378" width="114.967" height="1.89805" fill="white"/>
<rect x="-7.32129" y="77.5776" width="114.967" height="3.79609" fill="white"/>
<rect x="-7.32129" y="87.5747" width="114.932" height="6.44624" fill="white"/>
<path d="M56.7781 29.9339C57.2047 28.6209 58.2287 27.5881 59.5379 27.1501L78.8045 20.7053C79.2407 20.5594 79.5757 21.1015 79.2502 21.4264L50.0812 50.5432L56.7781 29.9339Z" fill="white"/>
<path d="M40.2632 26.7572C41.5761 27.1839 42.609 28.2079 43.047 29.5171L50.0795 50.5406L20.9327 21.3416C20.6095 21.0178 20.9403 20.4784 21.3754 20.6198L40.2632 26.7572Z" fill="white"/>
<path d="M69.3994 40.7275C70.6302 40.1022 72.0846 40.0976 73.3193 40.7151L91.4895 49.8026C91.9008 50.0083 91.7537 50.6284 91.2938 50.6275L50.0796 50.5427L69.3994 40.7275Z" fill="white"/>
<path d="M26.3462 40.6459C27.577 40.0206 29.0314 40.016 30.2661 40.6335L50.0932 50.5496L8.83656 50.4648C8.37907 50.4639 8.23236 49.8484 8.64023 49.6412L26.3462 40.6459Z" fill="white"/>
<path d="M26.3592 60.5307C26.7767 59.2148 27.7936 58.1749 29.0998 57.7279L50.0742 50.5505L21.0771 79.8981C20.7555 80.2235 20.2139 79.8964 20.3523 79.4604L26.3592 60.5307Z" fill="white"/>
<path d="M70.6417 57.3792C71.9516 57.815 72.9773 58.8462 73.4061 60.1584L79.7163 79.4695C79.8591 79.9067 79.3147 80.238 78.992 79.9103L50.0796 50.5387L70.6417 57.3792Z" fill="white"/>
<path d="M50.0917 50.4697L54.5266 62.1224C54.7259 62.646 54.3392 63.207 53.7789 63.207H46.3563C45.7949 63.207 45.4081 62.6438 45.6097 62.1197L50.0917 50.4697Z" fill="white"/>
<path d="M49.3286 60.4739C49.5721 59.7431 50.6064 59.7448 50.8474 60.4764L54.5932 71.8434C54.7638 72.3609 54.3783 72.8938 53.8334 72.8938H46.3011C45.7551 72.8938 45.3696 72.3589 45.5421 71.8409L49.3286 60.4739Z" fill="white"/>
<path d="M49.3286 71.4178C49.5721 70.687 50.6064 70.6886 50.8474 71.4202L54.5932 82.7872C54.7638 83.3047 54.3783 83.8376 53.8334 83.8376H46.3011C45.7551 83.8376 45.3696 83.3028 45.5421 82.7848L49.3286 71.4178Z" fill="white"/>
<path d="M49.3286 81.2845C49.5721 80.5537 50.6064 80.5553 50.8474 81.2869L54.5932 92.6539C54.7638 93.1714 54.3783 93.7043 53.8334 93.7043H46.3011C45.7551 93.7043 45.3696 93.1695 45.5421 92.6515L49.3286 81.2845Z" fill="white"/>
<path d="M49.3286 88.6404C49.5721 87.9096 50.6064 87.9113 50.8474 88.6429L54.5932 100.01C54.7638 100.527 54.3783 101.06 53.8334 101.06H46.3011C45.7551 101.06 45.3696 100.525 45.5421 100.007L49.3286 88.6404Z" fill="white"/>
<path d="M49.3286 98.1482C49.5721 97.4174 50.6064 97.4191 50.8474 98.1507L54.5932 109.518C54.7638 110.035 54.3783 110.568 53.8334 110.568H46.3011C45.7551 110.568 45.3696 110.033 45.5421 109.515L49.3286 98.1482Z" fill="white"/>
</g>
<defs>
<linearGradient id="paint0_linear_12_381" x1="50" y1="0" x2="50" y2="100" gradientUnits="userSpaceOnUse">
<stop stop-color="#A81AE0"/>
<stop offset="0.36801" stop-color="#F1328C"/>
<stop offset="0.74623" stop-color="#F7883F"/>
<stop offset="1" stop-color="#ECA441"/>
</linearGradient>
</defs>
</svg>
