<svg width="100" height="138" viewBox="0 0 100 138" fill="none" xmlns="http://www.w3.org/2000/svg">
<path d="M20.3331 110.68C23.3252 110.68 25.3997 111.77 26.5564 113.95L27.3307 117.221C27.3307 118.571 23.5738 121.142 16.06 124.933C12.1597 126.622 10.1283 127.668 9.9658 128.073C9.36355 129.202 8.97639 129.766 8.80432 129.766C8.37414 130.114 7.98698 130.635 7.64284 131.329H7.38473V131.459L7.25568 131.329H7.12663C6.94499 131.329 6.68689 131.898 6.3523 133.037H6.0942L6.22325 133.167V133.297C5.95558 133.297 5.30554 134.344 4.27311 136.437C4.015 137.479 3.49879 138 2.72446 138V137.74H2.59541L2.0792 137.87L1.9358 137.74H1.80675L1.41959 137.87L1.16148 137.609L0.903375 137.87L0 136.828V136.567C0 135.699 1.08023 132.998 3.24068 128.464L2.85352 128.334L2.98257 128.204V128.073L2.3373 127.538L1.80675 127.668L1.54864 127.278L1.6777 127.147V127.017C1.16148 127.017 0.903375 126.887 0.903375 126.626C1.96448 125.777 3.64696 124.774 5.9508 123.617L8.54621 118.263H8.41716C7.38473 118.263 6.39054 117.259 5.43459 115.253V114.081C6.14199 113.174 7.9583 112.436 10.8835 111.867C12.5564 111.51 15.7063 111.114 20.3331 110.68ZM13.2065 120.361H13.3355C16.146 119.039 18.7367 117.423 21.1074 115.513V115.383H20.9784C17.4414 115.518 15.6728 115.783 15.6728 116.179L13.2065 120.361Z" fill="#212121"/>
<path d="M35.0815 111.736C37.3854 111.736 38.7954 112.426 39.3116 113.806C39.6079 115.031 39.9664 117.462 40.387 121.099L40.5161 121.229C40.5639 121.798 40.6834 122.083 40.8746 122.083L44.7319 121.591V121.837H44.8609L46.7824 121.721V121.952L45.9364 122.198V122.329H46.7824L47.6284 122.198V122.444C46.8063 122.772 46.1658 122.936 45.7069 122.936V123.182L46.3092 123.052C46.8636 123.216 47.1409 123.38 47.1409 123.544L47.7574 123.414C49.3634 123.462 50.1664 123.626 50.1664 123.906L50.0374 124.022L50.8834 124.268V124.514C49.7936 125.083 47.5424 125.57 44.1296 125.975L41.9644 126.337C43.0064 130.466 43.5274 133.268 43.5274 134.744V135.222L43.1689 135.598H43.0398C42.7722 135.598 42.4949 135.473 42.2081 135.222V135.598H41.9644V135.352L41.5915 135.598L41.1184 135.222L39.9139 135.714L38.9388 134.744C38.5373 134.088 37.935 131.691 37.132 127.552H37.0173C31.9508 128.961 29.4175 130.061 29.4175 130.852C29.0925 131.054 28.127 132.308 26.521 134.614C25.9665 135.27 25.522 135.598 25.1874 135.598L24.9436 134.99L24.8289 135.106H24.7142C24.2267 134.817 23.9829 134.493 23.9829 134.136L23.8682 134.252H23.6244V134.006C23.2898 134.006 22.9696 133.765 22.6637 133.283C22.3387 133.283 22.1762 133.201 22.1762 133.037V132.183C22.1762 131.276 23.1417 129.776 25.0727 127.683C25.8948 126.303 27.2236 124.393 29.059 121.952L33.16 114.659L33.9917 112.214C34.4219 111.896 34.7852 111.736 35.0815 111.736ZM34.1208 123.544V123.66C35.4878 123.303 36.1713 123.062 36.1713 122.936L35.8128 120.983C35.5929 121.079 35.0289 121.933 34.1208 123.544ZM45.3341 121.475H45.5779V121.721H45.3341V121.475ZM45.4632 122.329V122.444H45.7069V122.329H45.4632Z" fill="#212121"/>
<path d="M60.5331 110H61.2931C63.5109 110.82 64.6198 111.896 64.6198 113.227C64.0463 114.172 61.7472 119.02 57.7226 127.77L56.7046 129.578L64.6198 129.057L65.6379 129.188H66.3979V129.448H66.0251V129.839H66.7851V130.099L65.5089 130.736L65.767 131.503H66.527L67.6741 132.675C67.6741 132.906 65.1647 133.374 60.146 134.079C58.0238 134.513 55.132 135.246 51.4707 136.278H51.3417C50.8732 136.278 50.0655 135.588 48.9183 134.209V134.079L49.0474 133.963L48.9183 133.833V132.545C48.9183 132.111 49.3007 131.594 50.0655 130.996C54.0805 123.501 56.9722 117.148 58.7407 111.939L58.6117 111.548C59.147 110.516 59.7875 110 60.5331 110Z" fill="#212121"/>
<path d="M81.5167 110.97H82.1619C83.1466 110.97 84.0069 111.621 84.743 112.923L84.4849 118.132C84.4849 119.599 84.7 120.776 85.1302 121.663C85.3118 121.653 86.1769 120.78 87.7256 119.044C88.0124 118.957 89.7331 117.264 92.8877 113.965C94.0731 112.315 95.2824 111.49 96.5156 111.49L97.4189 111.36C98.2602 111.553 98.7334 111.814 98.8385 112.142C99.0297 112.142 99.4169 112.489 100 113.183V113.444C100 114.322 98.7477 117.539 96.2431 123.096C95.3923 125.179 94.8331 126.221 94.5654 126.221L94.6945 126.351V126.482L93.0168 129.868C92.8638 129.877 92.1755 131.315 90.9519 134.18L90.0485 135.352H89.1452V135.091L88.6289 135.352C88.6289 135.159 88.3278 134.985 87.7256 134.831L87.4675 135.091C87.2285 135.063 87.0564 134.845 86.9513 134.44C86.6071 134.44 86.435 134.353 86.435 134.18V133.268C86.435 131.58 87.7256 128.319 90.3066 123.486C88.9588 124.74 87.6682 126.303 86.435 128.175C86.1483 128.175 85.7563 128.435 85.2592 128.956H85.1302C84.2124 128.31 83.3521 127.919 82.5491 127.784C81.6792 127.186 80.9049 125.406 80.2261 122.444H80.0971C76.3402 131.146 74.2705 135.665 73.8882 136.003H73.6301L72.9848 135.612L72.5976 135.743L72.4686 135.612L72.3395 135.743L72.0814 135.222L71.8233 135.482L71.6942 135.352L70.5328 135.612C70.3416 135.14 70.0835 134.879 69.7584 134.831V134.31C69.7584 132.226 72.2152 126.313 77.1288 116.57C78.2855 113.01 79.2319 111.23 79.968 111.23L81.5167 110.97Z" fill="#212121"/>
<circle cx="50" cy="50" r="50" fill="url(#paint0_linear_12_208)"/>
<mask id="mask0_12_208" style="mask-type:alpha" maskUnits="userSpaceOnUse" x="0" y="0" width="100" height="100">
<circle cx="50" cy="50" r="50" fill="white"/>
</mask>
<g mask="url(#mask0_12_208)">
<rect x="-7.32129" y="67.7378" width="114.967" height="1.89805" fill="white"/>
<rect x="-7.32129" y="77.5776" width="114.967" height="3.79609" fill="white"/>
<rect x="-7.32129" y="87.5747" width="114.932" height="6.44624" fill="white"/>
<path d="M56.7781 29.9339C57.2047 28.6209 58.2287 27.5881 59.5379 27.1501L78.8045 20.7053C79.2407 20.5594 79.5757 21.1015 79.2502 21.4264L50.0812 50.5432L56.7781 29.9339Z" fill="white"/>
<path d="M40.2632 26.7572C41.5761 27.1839 42.609 28.2079 43.047 29.5171L50.0795 50.5406L20.9327 21.3416C20.6095 21.0178 20.9403 20.4784 21.3754 20.6198L40.2632 26.7572Z" fill="white"/>
<path d="M69.3994 40.7275C70.6302 40.1022 72.0846 40.0976 73.3193 40.7151L91.4895 49.8026C91.9008 50.0083 91.7537 50.6284 91.2938 50.6275L50.0796 50.5427L69.3994 40.7275Z" fill="white"/>
<path d="M26.3462 40.6459C27.577 40.0206 29.0314 40.016 30.2661 40.6335L50.0932 50.5496L8.83656 50.4648C8.37907 50.4639 8.23236 49.8484 8.64023 49.6412L26.3462 40.6459Z" fill="white"/>
<path d="M26.3592 60.5307C26.7767 59.2148 27.7936 58.1749 29.0998 57.7279L50.0742 50.5505L21.0771 79.8981C20.7555 80.2235 20.2139 79.8964 20.3523 79.4604L26.3592 60.5307Z" fill="white"/>
<path d="M70.6417 57.3792C71.9516 57.815 72.9773 58.8462 73.4061 60.1584L79.7163 79.4695C79.8591 79.9067 79.3147 80.238 78.992 79.9103L50.0796 50.5387L70.6417 57.3792Z" fill="white"/>
<path d="M50.0917 50.4697L54.5266 62.1224C54.7259 62.646 54.3392 63.207 53.7789 63.207H46.3563C45.7949 63.207 45.4081 62.6438 45.6097 62.1197L50.0917 50.4697Z" fill="white"/>
<path d="M49.3286 60.4739C49.5721 59.7431 50.6064 59.7448 50.8474 60.4764L54.5932 71.8434C54.7638 72.3609 54.3783 72.8938 53.8334 72.8938H46.3011C45.7551 72.8938 45.3696 72.3589 45.5421 71.8409L49.3286 60.4739Z" fill="white"/>
<path d="M49.3286 71.4178C49.5721 70.687 50.6064 70.6886 50.8474 71.4202L54.5932 82.7872C54.7638 83.3047 54.3783 83.8376 53.8334 83.8376H46.3011C45.7551 83.8376 45.3696 83.3028 45.5421 82.7848L49.3286 71.4178Z" fill="white"/>
<path d="M49.3286 81.2845C49.5721 80.5537 50.6064 80.5553 50.8474 81.2869L54.5932 92.6539C54.7638 93.1714 54.3783 93.7043 53.8334 93.7043H46.3011C45.7551 93.7043 45.3696 93.1695 45.5421 92.6515L49.3286 81.2845Z" fill="white"/>
<path d="M49.3286 88.6404C49.5721 87.9096 50.6064 87.9113 50.8474 88.6429L54.5932 100.01C54.7638 100.527 54.3783 101.06 53.8334 101.06H46.3011C45.7551 101.06 45.3696 100.525 45.5421 100.007L49.3286 88.6404Z" fill="white"/>
<path d="M49.3286 98.1482C49.5721 97.4174 50.6064 97.4191 50.8474 98.1507L54.5932 109.518C54.7638 110.035 54.3783 110.568 53.8334 110.568H46.3011C45.7551 110.568 45.3696 110.033 45.5421 109.515L49.3286 98.1482Z" fill="white"/>
</g>
<defs>
<linearGradient id="paint0_linear_12_208" x1="50" y1="0" x2="50" y2="100" gradientUnits="userSpaceOnUse">
<stop stop-color="#A81AE0"/>
<stop offset="0.36801" stop-color="#F1328C"/>
<stop offset="0.74623" stop-color="#F7883F"/>
<stop offset="1" stop-color="#ECA441"/>
</linearGradient>
</defs>
</svg>
