<svg width="294" height="100" viewBox="0 0 294 100" fill="none" xmlns="http://www.w3.org/2000/svg">
<path d="M150.906 29.0369C156.274 29.0369 159.995 30.9634 162.07 34.8165L163.459 40.5961C163.459 42.9829 156.72 47.5265 143.241 54.2267C136.245 57.2103 132.601 59.0601 132.309 59.7761C131.229 61.7709 130.535 62.7682 130.226 62.7682C129.454 63.382 128.76 64.3026 128.142 65.5302H127.679V65.7603L127.448 65.5302H127.216C126.891 65.5302 126.428 66.536 125.827 68.5478H125.364L125.596 68.778V69.0081C125.116 69.0081 123.95 70.858 122.098 74.5576C121.635 76.3989 120.709 77.3195 119.32 77.3195V76.8592H119.088L118.162 77.0893L117.905 76.8592H117.674L116.979 77.0893L116.516 76.629L116.053 77.0893L114.433 75.2481V74.7877C114.433 73.2533 116.37 68.4796 120.246 60.4666L119.551 60.2365L119.783 60.0063V59.7761L118.625 58.8299L117.674 59.0601L117.211 58.3696L117.442 58.1394V57.9093C116.516 57.9093 116.053 57.6791 116.053 57.2188C117.957 55.7185 120.975 53.9454 125.107 51.8995L129.763 42.4374H129.531C127.679 42.4374 125.896 40.6643 124.181 37.1181V35.0467C125.45 33.4441 128.708 32.1398 133.956 31.1339C136.957 30.5031 142.607 29.8041 150.906 29.0369ZM138.123 46.1455H138.354C143.396 43.8098 148.043 40.9541 152.295 37.5784V37.3483H152.064C145.719 37.587 142.547 38.0558 142.547 38.7548L138.123 46.1455Z" fill="#212121"/>
<path d="M177.362 30.9038C181.495 30.9038 184.024 32.1228 184.95 34.5608C185.482 36.726 186.125 41.0223 186.879 47.4498L187.111 47.6799C187.197 48.6858 187.411 49.1888 187.754 49.1888L194.673 48.3193V48.754H194.905L198.352 48.5494V48.9586L196.834 49.3933V49.6235H198.352L199.869 49.3933V49.8281C198.394 50.4078 197.245 50.6976 196.422 50.6976V51.1323L197.503 50.9022C198.497 51.192 198.995 51.4818 198.995 51.7717L200.101 51.5415C202.981 51.6268 204.422 51.9166 204.422 52.411L204.19 52.6156L205.708 53.0503V53.4851C203.753 54.491 199.715 55.3519 193.593 56.068L189.709 56.7073C191.578 64.0043 192.513 68.957 192.513 71.5655V72.4094L191.87 73.0743H191.638C191.158 73.0743 190.661 72.8527 190.146 72.4094V73.0743H189.709V72.6396L189.04 73.0743L188.191 72.4094L186.031 73.2789L184.282 71.5655C183.561 70.4062 182.481 66.1695 181.041 58.8555H180.835C171.746 61.3446 167.202 63.2882 167.202 64.6862C166.619 65.0443 164.887 67.2606 162.006 71.3353C161.012 72.4946 160.214 73.0743 159.614 73.0743L159.177 72.0002L158.971 72.2048H158.765C157.891 71.6933 157.454 71.1222 157.454 70.4914L157.248 70.696H156.81V70.2612C156.21 70.2612 155.636 69.835 155.087 68.9826C154.504 68.9826 154.213 68.8377 154.213 68.5478V67.039C154.213 65.4364 155.944 62.7853 159.408 59.0857C160.883 56.6477 163.267 53.272 166.559 48.9586L173.916 36.0696L175.407 31.7477C176.179 31.1851 176.831 30.9038 177.362 30.9038ZM175.639 51.7717V51.9763C178.091 51.3454 179.317 50.9192 179.317 50.6976L178.674 47.2452C178.28 47.4157 177.268 48.9245 175.639 51.7717ZM195.754 48.1147H196.191V48.5494H195.754V48.1147ZM195.985 49.6235V49.8281H196.422V49.6235H195.985Z" fill="#212121"/>
<path d="M223.018 27.835H224.381C228.359 29.2841 230.349 31.1851 230.349 33.5378C229.32 35.2086 225.196 43.7757 217.976 59.2391L216.15 62.4358L230.349 61.5151L232.175 61.7453H233.538V62.2056H232.869V62.8961H234.233V63.3564L231.943 64.4816L232.406 65.837H233.77L235.827 67.9085C235.827 68.3177 231.326 69.1445 222.323 70.3891C218.517 71.1563 213.329 72.452 206.762 74.2763H206.53C205.69 74.2763 204.241 73.0573 202.183 70.6193V70.3891L202.415 70.1845L202.183 69.9544V67.6783C202.183 66.9111 202.869 65.999 204.241 64.942C211.443 51.6949 216.63 40.4682 219.803 31.2618L219.571 30.5713C220.531 28.7471 221.68 27.835 223.018 27.835Z" fill="#212121"/>
<path d="M260.658 29.5484H261.816C263.582 29.5484 265.125 30.6992 266.446 33.0008L265.983 42.2072C265.983 44.7987 266.369 46.8786 267.14 48.4471C267.466 48.4301 269.018 46.8871 271.796 43.8183C272.31 43.6649 275.397 40.6728 281.056 34.8421C283.182 31.9267 285.352 30.469 287.564 30.469L289.184 30.2389C290.693 30.5798 291.542 31.0402 291.731 31.6198C292.074 31.6198 292.768 32.2336 293.814 33.4611V33.9214C293.814 35.4729 291.568 41.1587 287.075 50.9789C285.549 54.6615 284.546 56.5027 284.065 56.5027L284.297 56.7329V56.9631L281.287 62.9472C281.013 62.9643 279.778 65.5046 277.583 70.5681L275.963 72.6396H274.342V72.1792L273.417 72.6396C273.417 72.2986 272.876 71.9917 271.796 71.7189L271.333 72.1792C270.904 72.1281 270.596 71.7445 270.407 71.0284C269.79 71.0284 269.481 70.875 269.481 70.5681V68.957C269.481 65.9734 271.796 60.2109 276.426 51.6694C274.008 53.8857 271.693 56.6477 269.481 59.9552C268.967 59.9552 268.264 60.4155 267.372 61.3361H267.14C265.494 60.1938 263.951 59.5034 262.51 59.2647C260.95 58.2076 259.561 55.0621 258.343 49.8281H258.112C251.373 65.2062 247.66 73.1937 246.974 73.7904H246.511L245.354 73.0999L244.659 73.33L244.428 73.0999L244.196 73.33L243.733 72.4094L243.27 72.8697L243.039 72.6396L240.955 73.0999C240.612 72.2645 240.149 71.8042 239.566 71.7189V70.7983C239.566 67.1157 243.973 56.6647 252.787 39.4453C254.862 33.1542 256.56 30.0087 257.88 30.0087L260.658 29.5484Z" fill="#212121"/>
<circle cx="50" cy="50" r="50" fill="url(#paint0_linear_12_116)"/>
<mask id="mask0_12_116" style="mask-type:alpha" maskUnits="userSpaceOnUse" x="0" y="0" width="100" height="100">
<circle cx="50" cy="50" r="50" fill="white"/>
</mask>
<g mask="url(#mask0_12_116)">
<rect x="-7.32129" y="67.7378" width="114.967" height="1.89805" fill="white"/>
<rect x="-7.32129" y="77.5776" width="114.967" height="3.79609" fill="white"/>
<rect x="-7.32129" y="87.5747" width="114.932" height="6.44624" fill="white"/>
<path d="M56.7781 29.9339C57.2047 28.6209 58.2287 27.5881 59.5379 27.1501L78.8045 20.7053C79.2407 20.5594 79.5757 21.1015 79.2502 21.4264L50.0812 50.5432L56.7781 29.9339Z" fill="white"/>
<path d="M40.2632 26.7572C41.5761 27.1839 42.609 28.2079 43.047 29.5171L50.0795 50.5406L20.9327 21.3416C20.6095 21.0178 20.9403 20.4784 21.3754 20.6198L40.2632 26.7572Z" fill="white"/>
<path d="M69.3994 40.7275C70.6302 40.1022 72.0846 40.0976 73.3193 40.7151L91.4895 49.8026C91.9008 50.0083 91.7537 50.6284 91.2938 50.6275L50.0796 50.5427L69.3994 40.7275Z" fill="white"/>
<path d="M26.3462 40.6459C27.577 40.0206 29.0314 40.016 30.2661 40.6335L50.0932 50.5496L8.83656 50.4648C8.37907 50.4639 8.23236 49.8484 8.64023 49.6412L26.3462 40.6459Z" fill="white"/>
<path d="M26.3592 60.5307C26.7767 59.2148 27.7936 58.1749 29.0998 57.7279L50.0742 50.5505L21.0771 79.8981C20.7555 80.2235 20.2139 79.8964 20.3523 79.4604L26.3592 60.5307Z" fill="white"/>
<path d="M70.6417 57.3792C71.9516 57.815 72.9773 58.8462 73.4061 60.1584L79.7163 79.4695C79.8591 79.9067 79.3147 80.238 78.992 79.9103L50.0796 50.5387L70.6417 57.3792Z" fill="white"/>
<path d="M50.0917 50.4697L54.5266 62.1224C54.7259 62.646 54.3392 63.207 53.7789 63.207H46.3563C45.7949 63.207 45.4081 62.6438 45.6097 62.1197L50.0917 50.4697Z" fill="white"/>
<path d="M49.3286 60.4739C49.5721 59.7431 50.6064 59.7448 50.8474 60.4764L54.5932 71.8434C54.7638 72.3609 54.3783 72.8938 53.8334 72.8938H46.3011C45.7551 72.8938 45.3696 72.3589 45.5421 71.8409L49.3286 60.4739Z" fill="white"/>
<path d="M49.3286 71.4178C49.5721 70.687 50.6064 70.6886 50.8474 71.4202L54.5932 82.7872C54.7638 83.3047 54.3783 83.8376 53.8334 83.8376H46.3011C45.7551 83.8376 45.3696 83.3028 45.5421 82.7848L49.3286 71.4178Z" fill="white"/>
<path d="M49.3286 81.2845C49.5721 80.5537 50.6064 80.5553 50.8474 81.2869L54.5932 92.6539C54.7638 93.1714 54.3783 93.7043 53.8334 93.7043H46.3011C45.7551 93.7043 45.3696 93.1695 45.5421 92.6515L49.3286 81.2845Z" fill="white"/>
<path d="M49.3286 88.6404C49.5721 87.9096 50.6064 87.9113 50.8474 88.6429L54.5932 100.01C54.7638 100.527 54.3783 101.06 53.8334 101.06H46.3011C45.7551 101.06 45.3696 100.525 45.5421 100.007L49.3286 88.6404Z" fill="white"/>
<path d="M49.3286 98.1482C49.5721 97.4174 50.6064 97.4191 50.8474 98.1507L54.5932 109.518C54.7638 110.035 54.3783 110.568 53.8334 110.568H46.3011C45.7551 110.568 45.3696 110.033 45.5421 109.515L49.3286 98.1482Z" fill="white"/>
</g>
<defs>
<linearGradient id="paint0_linear_12_116" x1="50" y1="0" x2="50" y2="100" gradientUnits="userSpaceOnUse">
<stop stop-color="#A81AE0"/>
<stop offset="0.36801" stop-color="#F1328C"/>
<stop offset="0.74623" stop-color="#F7883F"/>
<stop offset="1" stop-color="#ECA441"/>
</linearGradient>
</defs>
</svg>
